<svg width="16" height="16" viewBox="0 0 16 16" fill="none" xmlns="http://www.w3.org/2000/svg">
<path fill-rule="evenodd" clip-rule="evenodd" d="M8 14.4C9.69738 14.4 11.3252 13.7257 12.5255 12.5255C13.7257 11.3253 14.4 9.69739 14.4 8.00001C14.4 6.30262 13.7257 4.67476 12.5255 3.47452C11.3252 2.27429 9.69738 1.60001 8 1.60001C6.30261 1.60001 4.67475 2.27429 3.47452 3.47452C2.27428 4.67476 1.6 6.30262 1.6 8.00001C1.6 9.69739 2.27428 11.3253 3.47452 12.5255C4.67475 13.7257 6.30261 14.4 8 14.4ZM6.9656 5.83441C6.81472 5.68868 6.61264 5.60804 6.40288 5.60987C6.19312 5.61169 5.99247 5.69582 5.84414 5.84415C5.69582 5.99248 5.61168 6.19313 5.60986 6.40288C5.60804 6.61264 5.68867 6.81472 5.8344 6.96561L6.8688 8.00001L5.8344 9.03441C5.75799 9.1082 5.69704 9.19648 5.65512 9.29408C5.61319 9.39169 5.59112 9.49666 5.5902 9.60289C5.58927 9.70911 5.60952 9.81445 5.64974 9.91277C5.68997 10.0111 5.74937 10.1004 5.82448 10.1755C5.8996 10.2506 5.98892 10.31 6.08723 10.3503C6.18555 10.3905 6.2909 10.4107 6.39712 10.4098C6.50334 10.4089 6.60832 10.3868 6.70592 10.3449C6.80352 10.303 6.8918 10.242 6.9656 10.1656L8 9.13121L9.0344 10.1656C9.18528 10.3113 9.38736 10.392 9.59712 10.3901C9.80688 10.3883 10.0075 10.3042 10.1559 10.1559C10.3042 10.0075 10.3883 9.80688 10.3901 9.59713C10.392 9.38737 10.3113 9.18529 10.1656 9.03441L9.1312 8.00001L10.1656 6.96561C10.3113 6.81472 10.392 6.61264 10.3901 6.40288C10.3883 6.19313 10.3042 5.99248 10.1559 5.84415C10.0075 5.69582 9.80688 5.61169 9.59712 5.60987C9.38736 5.60804 9.18528 5.68868 9.0344 5.83441L8 6.86881L6.9656 5.83441Z" fill="#6B7380"/>
</svg>
