<svg width="13" height="13" viewBox="0 0 13 13" fill="none" xmlns="http://www.w3.org/2000/svg">
<path fill-rule="evenodd" clip-rule="evenodd" d="M6.50005 11.7C7.87917 11.7 9.20181 11.1521 10.177 10.1769C11.1522 9.20175 11.7 7.87911 11.7 6.49999C11.7 5.12086 11.1522 3.79822 10.177 2.82303C9.20181 1.84784 7.87917 1.29999 6.50005 1.29999C5.12092 1.29999 3.79828 1.84784 2.82309 2.82303C1.8479 3.79822 1.30005 5.12086 1.30005 6.49999C1.30005 7.87911 1.8479 9.20175 2.82309 10.1769C3.79828 11.1521 5.12092 11.7 6.50005 11.7ZM5.6596 4.74044C5.53701 4.62203 5.37282 4.55652 5.20239 4.558C5.03196 4.55948 4.86893 4.62784 4.74842 4.74836C4.6279 4.86887 4.55954 5.0319 4.55806 5.20233C4.55658 5.37275 4.6221 5.53695 4.7405 5.65954L5.58095 6.49999L4.7405 7.34044C4.67842 7.4004 4.6289 7.47212 4.59483 7.55142C4.56077 7.63073 4.54284 7.71602 4.54209 7.80233C4.54134 7.88863 4.55778 7.97422 4.59046 8.05411C4.62315 8.13399 4.67141 8.20656 4.73244 8.26759C4.79347 8.32862 4.86605 8.37689 4.94593 8.40957C5.02581 8.44225 5.1114 8.4587 5.19771 8.45795C5.28402 8.4572 5.36931 8.43927 5.44861 8.4052C5.52791 8.37114 5.59964 8.32162 5.6596 8.25954L6.50005 7.41909L7.3405 8.25954C7.46309 8.37794 7.62728 8.44346 7.79771 8.44197C7.96814 8.44049 8.13116 8.37213 8.25168 8.25162C8.3722 8.1311 8.44056 7.96808 8.44204 7.79765C8.44352 7.62722 8.378 7.46303 8.2596 7.34044L7.41915 6.49999L8.2596 5.65954C8.378 5.53695 8.44352 5.37275 8.44204 5.20233C8.44056 5.0319 8.3722 4.86887 8.25168 4.74836C8.13116 4.62784 7.96814 4.55948 7.79771 4.558C7.62728 4.55652 7.46309 4.62203 7.3405 4.74044L6.50005 5.58089L5.6596 4.74044Z" fill="white"/>
</svg>
