<svg width="168" height="16" viewBox="0 0 168 16" fill="none" xmlns="http://www.w3.org/2000/svg">
<path d="M10.1616 0.500916V15.8005H8.33779L1.86732 4.22619V15.8005H0V0.500916H1.78051L8.29426 12.1862V0.500916H10.1616Z" fill="#994E98"/>
<path d="M25.0576 0.500916V2.2305H17.8922V7.01994H24.4062V8.7495H17.8922V14.0709H25.0576V15.8005H16.0249V0.500916H25.0576Z" fill="#994E98"/>
<path d="M33.83 15.8005H31.9628L28.3149 0.500916H30.2691L32.9833 12.5189L36.2836 0.500916H38.1292L41.4947 12.5852L44.2089 0.501056H46.1631L42.5153 15.8005H40.6262L37.2172 3.91555L33.83 15.8005Z" fill="#994E98"/>
<path d="M53.0686 13.1841H59.3654V15.8005H50.0288V0.500916H53.0686V13.1841Z" fill="#752A86"/>
<path d="M89.8516 0.500916V9.59197C89.8516 14.1153 87.4195 16 84.0978 16C80.776 16 78.3438 14.1153 78.3438 9.61417V0.500916H81.3837V9.61417C81.3837 12.2306 82.2304 13.3836 84.0978 13.3836C85.9651 13.3836 86.8118 12.2306 86.8118 9.61417V0.500916H89.8516Z" fill="#752A86"/>
<path d="M106.246 0.500916V15.8005H103.706L97.8647 6.33258V15.8005H94.9771V0.500916H97.4957L103.358 10.102V0.500916H106.246Z" fill="#752A86"/>
<path d="M119.252 5.24594C118.97 3.80465 118.145 2.91781 116.669 2.91781C114.91 2.91781 113.976 4.13737 113.976 7.06432V9.23731C113.976 12.0755 114.91 13.3835 116.669 13.3835C118.188 13.3835 118.927 12.6074 119.252 11.0554H122.14C121.641 14.4921 119.752 16 116.669 16C113.303 16 110.937 13.9158 110.937 9.23731V7.06432C110.937 2.34147 113.303 0.301361 116.669 0.301361C119.643 0.301361 121.663 1.89818 122.162 5.24594H119.252Z" fill="#752A86"/>
<path d="M129.502 6.57651H134.691V0.500916H137.731V15.8005H134.691V9.19293H129.502V15.8005H126.462V0.500916H129.502V6.57651Z" fill="#752A86"/>
<path d="M152.214 0.500916V3.13954H145.917V6.57651H151.563V9.19293H145.917V13.1841H152.214V15.8005H142.877V0.500916H152.214Z" fill="#752A86"/>
<path d="M164.656 15.8005L161.964 9.79139H159.532V15.8005H156.492V0.500916H161.855C165.308 0.500916 167.457 2.07528 167.457 5.17962C167.457 7.24165 166.523 8.59412 164.895 9.28148L168 15.8005H164.656ZM161.573 7.17505C163.375 7.17505 164.417 6.77602 164.417 5.17973C164.417 3.58345 163.375 3.13951 161.573 3.13951H159.532V7.17505H161.573Z" fill="#752A86"/>
<path d="M68.7413 0L62.0747 6.28874V15.8005L68.7413 9.51173L75.4078 15.8005V6.28874L68.7413 0ZM69.9345 7.78231H67.5481V5.34544H69.9345V7.78231Z" fill="#752A86"/>
</svg>
